<?xml version="1.0" encoding="UTF-8"?>
<svg width="882px" height="300px" viewBox="0 0 882 300" version="1.1" xmlns="http://www.w3.org/2000/svg" xmlns:xlink="http://www.w3.org/1999/xlink">
    <!-- Generator: Sketch 61 (89581) - https://sketch.com -->
    <title>Group</title>
    <desc>Created with Sketch.</desc>
    <g id="Github-Covers" stroke="none" stroke-width="1" fill="none" fill-rule="evenodd">
        <g id="Whitepaper" transform="translate(0.000000, -0.000000)">
            <g id="Group">
                <rect id="Rectangle" fill="#FFFFFF" fill-rule="nonzero" x="0" y="0" width="882" height="300"></rect>
                <rect id="Rectangle" fill="#000000" fill-rule="nonzero" x="0" y="0" width="882" height="210"></rect>
                <rect id="Rectangle" fill="#1F242C" fill-rule="nonzero" x="620" y="105" width="52.5" height="52.5"></rect>
                <polygon id="Path" fill="#1F242C" fill-rule="nonzero" points="625.837 157.5 620 157.5 620 163.337 625.837 163.337"></polygon>
                <polygon id="Path" fill="#1F242C" fill-rule="nonzero" points="631.674 163.337 625.837 163.337 625.837 169.174 631.674 169.174"></polygon>
                <polygon id="Path" fill="#1F242C" fill-rule="nonzero" points="637.494 157.5 631.658 157.5 631.658 163.337 637.494 163.337"></polygon>
                <polygon id="Path" fill="#1F242C" fill-rule="nonzero" points="625.837 169.158 620 169.158 620 174.995 625.837 174.995"></polygon>
                <polygon id="Path" fill="#1F242C" fill-rule="nonzero" points="637.494 169.158 631.658 169.158 631.658 174.995 637.494 174.995"></polygon>
                <polygon id="Path" fill="#1F242C" fill-rule="nonzero" points="643.332 163.337 637.496 163.337 637.496 169.174 643.332 169.174"></polygon>
                <polygon id="Path" fill="#1F242C" fill-rule="nonzero" points="631.674 174.995 625.837 174.995 625.837 180.832 631.674 180.832"></polygon>
                <polygon id="Path" fill="#1F242C" fill-rule="nonzero" points="625.837 180.832 620 180.832 620 186.669 625.837 186.669"></polygon>
                <polygon id="Path" fill="#1F242C" fill-rule="nonzero" points="637.494 180.832 631.658 180.832 631.658 186.669 637.494 186.669"></polygon>
                <polygon id="Path" fill="#1F242C" fill-rule="nonzero" points="643.332 174.995 637.496 174.995 637.496 180.832 643.332 180.832"></polygon>
                <polygon id="Path" fill="#1F242C" fill-rule="nonzero" points="631.674 186.668 625.837 186.668 625.837 192.505 631.674 192.505"></polygon>
                <polygon id="Path" fill="#1F242C" fill-rule="nonzero" points="625.837 192.489 620 192.489 620 198.326 625.837 198.326"></polygon>
                <polygon id="Path" fill="#1F242C" fill-rule="nonzero" points="637.494 192.489 631.658 192.489 631.658 198.326 637.494 198.326"></polygon>
                <polygon id="Path" fill="#1F242C" fill-rule="nonzero" points="643.332 186.668 637.496 186.668 637.496 192.505 643.332 192.505"></polygon>
                <polygon id="Path" fill="#1F242C" fill-rule="nonzero" points="631.674 198.326 625.837 198.326 625.837 204.163 631.674 204.163"></polygon>
                <polygon id="Path" fill="#1F242C" fill-rule="nonzero" points="625.837 204.164 620 204.164 620 210.001 625.837 210.001"></polygon>
                <polygon id="Path" fill="#1F242C" fill-rule="nonzero" points="637.494 204.164 631.658 204.164 631.658 210.001 637.494 210.001"></polygon>
                <polygon id="Path" fill="#1F242C" fill-rule="nonzero" points="643.332 198.326 637.496 198.326 637.496 204.163 643.332 204.163"></polygon>
                <polygon id="Path" fill="#1F242C" fill-rule="nonzero" points="649.168 157.5 643.331 157.5 643.331 163.337 649.168 163.337"></polygon>
                <polygon id="Path" fill="#1F242C" fill-rule="nonzero" points="655.006 163.337 649.169 163.337 649.169 169.174 655.006 169.174"></polygon>
                <polygon id="Path" fill="#1F242C" fill-rule="nonzero" points="660.826 157.5 654.99 157.5 654.99 163.337 660.826 163.337"></polygon>
                <polygon id="Path" fill="#1F242C" fill-rule="nonzero" points="649.168 169.158 643.331 169.158 643.331 174.995 649.168 174.995"></polygon>
                <polygon id="Path" fill="#1F242C" fill-rule="nonzero" points="660.826 169.158 654.99 169.158 654.99 174.995 660.826 174.995"></polygon>
                <polygon id="Path" fill="#1F242C" fill-rule="nonzero" points="666.663 163.337 660.826 163.337 660.826 169.174 666.663 169.174"></polygon>
                <polygon id="Path" fill="#1F242C" fill-rule="nonzero" points="655.006 174.995 649.169 174.995 649.169 180.832 655.006 180.832"></polygon>
                <polygon id="Path" fill="#1F242C" fill-rule="nonzero" points="649.168 180.832 643.331 180.832 643.331 186.669 649.168 186.669"></polygon>
                <polygon id="Path" fill="#1F242C" fill-rule="nonzero" points="660.826 180.832 654.99 180.832 654.99 186.669 660.826 186.669"></polygon>
                <polygon id="Path" fill="#1F242C" fill-rule="nonzero" points="666.663 174.995 660.826 174.995 660.826 180.832 666.663 180.832"></polygon>
                <polygon id="Path" fill="#1F242C" fill-rule="nonzero" points="655.006 186.668 649.169 186.668 649.169 192.505 655.006 192.505"></polygon>
                <polygon id="Path" fill="#1F242C" fill-rule="nonzero" points="649.168 192.489 643.331 192.489 643.331 198.326 649.168 198.326"></polygon>
                <polygon id="Path" fill="#1F242C" fill-rule="nonzero" points="660.826 192.489 654.99 192.489 654.99 198.326 660.826 198.326"></polygon>
                <polygon id="Path" fill="#1F242C" fill-rule="nonzero" points="666.663 186.668 660.826 186.668 660.826 192.505 666.663 192.505"></polygon>
                <polygon id="Path" fill="#1F242C" fill-rule="nonzero" points="655.006 198.326 649.169 198.326 649.169 204.163 655.006 204.163"></polygon>
                <polygon id="Path" fill="#1F242C" fill-rule="nonzero" points="649.168 204.164 643.331 204.164 643.331 210.001 649.168 210.001"></polygon>
                <polygon id="Path" fill="#1F242C" fill-rule="nonzero" points="660.826 204.164 654.99 204.164 654.99 210.001 660.826 210.001"></polygon>
                <polygon id="Path" fill="#1F242C" fill-rule="nonzero" points="672.5 157.5 666.663 157.5 666.663 163.337 672.5 163.337"></polygon>
                <polygon id="Path" fill="#1F242C" fill-rule="nonzero" points="672.5 169.158 666.663 169.158 666.663 174.995 672.5 174.995"></polygon>
                <polygon id="Path" fill="#1F242C" fill-rule="nonzero" points="672.5 180.832 666.663 180.832 666.663 186.669 672.5 186.669"></polygon>
                <polygon id="Path" fill="#1F242C" fill-rule="nonzero" points="672.5 192.489 666.663 192.489 666.663 198.326 672.5 198.326"></polygon>
                <polygon id="Path" fill="#1F242C" fill-rule="nonzero" points="672.5 204.164 666.663 204.164 666.663 210.001 672.5 210.001"></polygon>
                <polygon id="Path" fill="#1F242C" fill-rule="nonzero" points="666.663 198.326 660.826 198.326 660.826 204.163 666.663 204.163"></polygon>
                <rect id="Rectangle" fill="#1F242C" fill-rule="nonzero" x="631.667" y="52.5" width="5.83333" height="52.5"></rect>
                <rect id="Rectangle" fill="#1F242C" fill-rule="nonzero" x="643.333" y="52.5" width="5.83333" height="52.5"></rect>
                <rect id="Rectangle" fill="#1F242C" fill-rule="nonzero" x="655" y="52.5" width="5.83333" height="52.5"></rect>
                <rect id="Rectangle" fill="#1F242C" fill-rule="nonzero" x="666.667" y="52.5" width="5.83333" height="52.5"></rect>
                <rect id="Rectangle" fill="#1F242C" fill-rule="nonzero" x="620" y="52.5" width="5.83668" height="52.5"></rect>
                <rect id="Rectangle" fill="#1F242C" fill-rule="nonzero" transform="translate(552.916335, 131.250000) rotate(-180.000000) translate(-552.916335, -131.250000) " x="549.99967" y="105" width="5.83333" height="52.5"></rect>
                <rect id="Rectangle" fill="#1F242C" fill-rule="nonzero" transform="translate(541.250335, 131.250000) rotate(-180.000000) translate(-541.250335, -131.250000) " x="538.33367" y="105" width="5.83333" height="52.5"></rect>
                <rect id="Rectangle" fill="#1F242C" fill-rule="nonzero" transform="translate(529.583335, 131.250000) rotate(-180.000000) translate(-529.583335, -131.250000) " x="526.66667" y="105" width="5.83333" height="52.5"></rect>
                <rect id="Rectangle" fill="#1F242C" fill-rule="nonzero" transform="translate(517.916335, 131.250000) rotate(-180.000000) translate(-517.916335, -131.250000) " x="514.99967" y="105" width="5.83333" height="52.5"></rect>
                <rect id="Rectangle" fill="#1F242C" fill-rule="nonzero" transform="translate(564.581660, 131.250000) rotate(-180.000000) translate(-564.581660, -131.250000) " x="561.66332" y="105" width="5.83668" height="52.5"></rect>
                <rect id="Rectangle" fill="#1F242C" fill-rule="nonzero" transform="translate(867.588335, 27.234400) rotate(-180.000000) translate(-867.588335, -27.234400) " x="864.67167" y="0.9844" width="5.83333" height="52.5"></rect>
                <rect id="Rectangle" fill="#1F242C" fill-rule="nonzero" transform="translate(855.921335, 27.234400) rotate(-180.000000) translate(-855.921335, -27.234400) " x="853.00467" y="0.9844" width="5.83333" height="52.5"></rect>
                <rect id="Rectangle" fill="#1F242C" fill-rule="nonzero" transform="translate(844.255335, 27.234400) rotate(-180.000000) translate(-844.255335, -27.234400) " x="841.33867" y="0.9844" width="5.83333" height="52.5"></rect>
                <rect id="Rectangle" fill="#1F242C" fill-rule="nonzero" transform="translate(832.588335, 27.234400) rotate(-180.000000) translate(-832.588335, -27.234400) " x="829.67167" y="0.9844" width="5.83333" height="52.5"></rect>
                <rect id="Rectangle" fill="#1F242C" fill-rule="nonzero" transform="translate(879.253660, 27.234400) rotate(-180.000000) translate(-879.253660, -27.234400) " x="876.33532" y="0.9844" width="5.83668" height="52.5"></rect>
                <path d="M567.5,163.333 L567.5,157.5 C596.495,157.5 620,181.005 620,210 L614.167,210 C614.167,184.227 593.273,163.333 567.5,163.333 Z M567.5,175 L567.5,169.166 C590.052,169.166 608.333,187.448 608.333,210 L602.5,210 C602.5,190.67 586.83,175 567.5,175 Z M567.5,180.834 L567.5,186.667 C580.387,186.667 590.833,197.114 590.833,210 L596.667,210 C596.667,193.892 583.608,180.834 567.5,180.834 Z M567.5,198.333 L567.5,192.5 C577.165,192.5 585,200.335 585,210 L579.167,210 C579.167,203.557 573.943,198.333 567.5,198.333 Z M567.5,210 L567.5,204.166 C570.722,204.166 573.333,206.778 573.333,210 L567.5,210 Z" id="Shape" fill="#1F242C"></path>
                <path d="M777,110.833 L777,105 C805.995,105 829.5,128.505 829.5,157.5 L823.667,157.5 C823.667,131.727 802.773,110.833 777,110.833 Z M777,122.5 L777,116.667 C799.552,116.667 817.833,134.949 817.833,157.5 L812,157.5 C812,138.17 796.33,122.5 777,122.5 Z M777,128.333 L777,134.167 C789.887,134.167 800.333,144.613 800.333,157.5 L806.167,157.5 C806.167,141.392 793.108,128.333 777,128.333 Z M777,145.833 L777,140 C786.665,140 794.5,147.835 794.5,157.5 L788.667,157.5 C788.667,151.056 783.443,145.833 777,145.833 Z M777,157.5 L777,151.667 C780.222,151.667 782.833,154.279 782.833,157.5 L777,157.5 Z" id="Shape" fill="#1F242C"></path>
                <path d="M729.112,52.5 L725,52.5 L725,48.3875 L773.387,0 L777.5,0 L777.5,4.1125 L729.112,52.5 Z M765.133,0 L756.879,0 L725,31.8791 L725,40.1333 L765.133,0 Z M748.625,0 L740.371,0 L725,15.3708 L725,23.625 L748.625,0 Z M725,0 L725,7.11666 L732.116,0 L725,0 Z M777.5,20.6208 L777.5,12.3667 L737.366,52.5 L745.621,52.5 L777.5,20.6208 Z M777.5,37.1291 L777.5,28.875 L753.875,52.5 L762.129,52.5 L777.5,37.1291 Z M777.5,45.3833 L770.383,52.5 L777.5,52.5 L777.5,45.3833 Z" id="Shape" fill="#1F242C" fill-rule="nonzero"></path>
                <path d="M672.5,105 L725,105 L725,52.5 C696.005,52.5 672.5,76.0051 672.5,105 Z" id="Path" fill="#1F242C" fill-rule="nonzero"></path>
                <path d="M777.5,157.5 L777.5,105 L725,105 C725,133.995 748.505,157.5 777.5,157.5 Z" id="Path" fill="#1F242C" fill-rule="nonzero"></path>
                <path d="M62.0156,68.3516 L66.8672,68.3516 L73.2422,95.8672 L73.4297,95.8672 L79.8281,68.3516 L84.9141,68.3516 L91.2891,95.8672 L91.4766,95.8672 L97.875,68.3516 L102.727,68.3516 L94.2656,101 L88.5703,101 L82.4531,74.75 L82.2656,74.75 L76.1719,101 L70.4531,101 L62.0156,68.3516 Z M108.703,101 L108.703,68.3516 L113.016,68.3516 L113.016,80.5625 C113.688,79.125 114.609,78 115.781,77.1875 C116.953,76.3594 118.469,75.9453 120.328,75.9453 C121.516,75.9453 122.594,76.1094 123.562,76.4375 C124.531,76.75 125.367,77.2578 126.07,77.9609 C126.773,78.6641 127.32,79.5703 127.711,80.6797 C128.102,81.7734 128.297,83.1094 128.297,84.6875 L128.297,101 L123.961,101 L123.961,85.1562 C123.961,83.3594 123.617,81.9531 122.93,80.9375 C122.242,79.9062 120.969,79.3906 119.109,79.3906 C118.219,79.3906 117.406,79.5703 116.672,79.9297 C115.938,80.2734 115.297,80.7734 114.75,81.4297 C114.203,82.0859 113.773,82.8672 113.461,83.7734 C113.164,84.6641 113.016,85.6406 113.016,86.7031 L113.016,101 L108.703,101 Z M135.984,72.875 L135.984,68.3516 L140.484,68.3516 L140.484,72.875 L135.984,72.875 Z M136.078,101 L136.078,76.5312 L140.391,76.5312 L140.391,101 L136.078,101 Z M146.016,80.2109 L146.016,76.5312 L150.141,76.5312 L150.141,68.3516 L154.406,68.3516 L154.406,76.5312 L160.031,76.5312 L160.031,80.2109 L154.406,80.2109 L154.406,97.2969 L160.031,97.2969 L160.031,101 L150.141,101 L150.141,80.2109 L146.016,80.2109 Z M164.742,88.7656 C164.742,86.9062 164.969,85.1875 165.422,83.6094 C165.891,82.0156 166.578,80.6641 167.484,79.5547 C168.406,78.4297 169.516,77.5469 170.812,76.9062 C172.109,76.2656 173.602,75.9453 175.289,75.9453 C177.055,75.9453 178.594,76.25 179.906,76.8594 C181.219,77.4688 182.305,78.3047 183.164,79.3672 C184.023,80.4141 184.672,81.6484 185.109,83.0703 C185.547,84.4922 185.766,86.0234 185.766,87.6641 L185.766,89.9609 L169.289,89.9609 L169.289,92.5625 C169.289,93.4531 169.453,94.2422 169.781,94.9297 C170.125,95.6172 170.586,96.2031 171.164,96.6875 C171.742,97.1562 172.391,97.5156 173.109,97.7656 C173.828,98 174.57,98.1172 175.336,98.1172 C176.867,98.1172 178.195,97.7266 179.32,96.9453 C180.445,96.1641 181.086,94.9219 181.242,93.2188 L185.578,93.2188 C185.484,94.5312 185.141,95.7031 184.547,96.7344 C183.953,97.75 183.18,98.6172 182.227,99.3359 C181.289,100.055 180.227,100.609 179.039,101 C177.852,101.391 176.602,101.586 175.289,101.586 C173.523,101.586 171.977,101.266 170.648,100.625 C169.336,99.9844 168.234,99.1016 167.344,97.9766 C166.469,96.8516 165.812,95.5078 165.375,93.9453 C164.953,92.3828 164.742,90.6562 164.742,88.7656 Z M169.289,86.5156 L181.289,86.5156 L181.289,85.1562 C181.289,84.2656 181.125,83.4609 180.797,82.7422 C180.484,82.0234 180.047,81.4141 179.484,80.9141 C178.938,80.4141 178.297,80.0391 177.562,79.7891 C176.844,79.5234 176.086,79.3906 175.289,79.3906 C174.492,79.3906 173.734,79.5234 173.016,79.7891 C172.297,80.0391 171.656,80.4141 171.094,80.9141 C170.531,81.4141 170.086,82.0234 169.758,82.7422 C169.445,83.4609 169.289,84.2656 169.289,85.1562 L169.289,86.5156 Z M192.328,109.156 L192.328,76.5312 L196.641,76.5312 L196.641,80.5156 C197.406,79.0469 198.438,77.9219 199.734,77.1406 C201.031,76.3438 202.609,75.9453 204.469,75.9453 C206.094,75.9453 207.516,76.2812 208.734,76.9531 C209.953,77.625 210.961,78.5391 211.758,79.6953 C212.57,80.8359 213.172,82.1953 213.562,83.7734 C213.969,85.3359 214.172,87 214.172,88.7656 C214.172,90.5625 213.969,92.2344 213.562,93.7812 C213.172,95.3281 212.57,96.6797 211.758,97.8359 C210.961,98.9922 209.953,99.9062 208.734,100.578 C207.531,101.25 206.109,101.586 204.469,101.586 C202.609,101.586 201.031,101.195 199.734,100.414 C198.438,99.6172 197.406,98.4844 196.641,97.0156 L196.641,109.156 L192.328,109.156 Z M196.641,90.8281 C196.641,92.9375 197.219,94.6797 198.375,96.0547 C199.531,97.4297 201.195,98.1172 203.367,98.1172 C205.195,98.1172 206.688,97.6094 207.844,96.5938 C209.016,95.5625 209.602,94.2188 209.602,92.5625 L209.602,84.9688 C209.602,83.3125 209.016,81.9688 207.844,80.9375 C206.688,79.9062 205.195,79.3906 203.367,79.3906 C201.195,79.3906 199.531,80.0859 198.375,81.4766 C197.219,82.8516 196.641,84.5938 196.641,86.7031 L196.641,90.8281 Z M219.328,94.2734 C219.328,92.3516 219.938,90.7031 221.156,89.3281 C222.375,87.9531 224.203,87.1562 226.641,86.9375 L234.609,86.2109 L234.609,84.2422 C234.609,83.2891 234.484,82.5 234.234,81.875 C234,81.25 233.656,80.7578 233.203,80.3984 C232.766,80.0234 232.234,79.7656 231.609,79.625 C230.984,79.4688 230.289,79.3906 229.523,79.3906 C227.992,79.3906 226.766,79.7344 225.844,80.4219 C224.938,81.1094 224.484,82.2422 224.484,83.8203 L220.148,83.8203 C220.148,82.6641 220.398,81.6094 220.898,80.6562 C221.398,79.6875 222.07,78.8516 222.914,78.1484 C223.758,77.4453 224.75,76.9062 225.891,76.5312 C227.031,76.1406 228.258,75.9453 229.57,75.9453 C230.883,75.9453 232.102,76.1172 233.227,76.4609 C234.367,76.7891 235.352,77.2891 236.18,77.9609 C237.023,78.6328 237.672,79.5 238.125,80.5625 C238.594,81.6094 238.828,82.8516 238.828,84.2891 L238.828,97.2969 L242.484,97.2969 L242.484,101 L235.172,101 L235.078,96.4766 L234.891,96.4766 C234.219,98.2109 233.227,99.5 231.914,100.344 C230.602,101.172 229.031,101.586 227.203,101.586 C225.984,101.586 224.883,101.398 223.898,101.023 C222.914,100.648 222.062,100.094 221.344,99.3594 C220.703,98.7188 220.203,97.9531 219.844,97.0625 C219.5,96.1719 219.328,95.2422 219.328,94.2734 Z M223.898,94.8594 C223.898,95.9844 224.289,96.8125 225.07,97.3438 C225.852,97.8594 226.93,98.1172 228.305,98.1172 C230.258,98.1172 231.797,97.4219 232.922,96.0312 C234.047,94.6406 234.609,92.8438 234.609,90.6406 L234.609,89.5391 L225.914,90.3359 C225.023,90.3984 224.461,90.6328 224.227,91.0391 C224.008,91.4453 223.898,92 223.898,92.7031 L223.898,94.8594 Z M247.312,109.156 L247.312,76.5312 L251.625,76.5312 L251.625,80.5156 C252.391,79.0469 253.422,77.9219 254.719,77.1406 C256.016,76.3438 257.594,75.9453 259.453,75.9453 C261.078,75.9453 262.5,76.2812 263.719,76.9531 C264.938,77.625 265.945,78.5391 266.742,79.6953 C267.555,80.8359 268.156,82.1953 268.547,83.7734 C268.953,85.3359 269.156,87 269.156,88.7656 C269.156,90.5625 268.953,92.2344 268.547,93.7812 C268.156,95.3281 267.555,96.6797 266.742,97.8359 C265.945,98.9922 264.938,99.9062 263.719,100.578 C262.516,101.25 261.094,101.586 259.453,101.586 C257.594,101.586 256.016,101.195 254.719,100.414 C253.422,99.6172 252.391,98.4844 251.625,97.0156 L251.625,109.156 L247.312,109.156 Z M251.625,90.8281 C251.625,92.9375 252.203,94.6797 253.359,96.0547 C254.516,97.4297 256.18,98.1172 258.352,98.1172 C260.18,98.1172 261.672,97.6094 262.828,96.5938 C264,95.5625 264.586,94.2188 264.586,92.5625 L264.586,84.9688 C264.586,83.3125 264,81.9688 262.828,80.9375 C261.672,79.9062 260.18,79.3906 258.352,79.3906 C256.18,79.3906 254.516,80.0859 253.359,81.4766 C252.203,82.8516 251.625,84.5938 251.625,86.7031 L251.625,90.8281 Z M274.57,88.7656 C274.57,86.9062 274.797,85.1875 275.25,83.6094 C275.719,82.0156 276.406,80.6641 277.312,79.5547 C278.234,78.4297 279.344,77.5469 280.641,76.9062 C281.938,76.2656 283.43,75.9453 285.117,75.9453 C286.883,75.9453 288.422,76.25 289.734,76.8594 C291.047,77.4688 292.133,78.3047 292.992,79.3672 C293.852,80.4141 294.5,81.6484 294.938,83.0703 C295.375,84.4922 295.594,86.0234 295.594,87.6641 L295.594,89.9609 L279.117,89.9609 L279.117,92.5625 C279.117,93.4531 279.281,94.2422 279.609,94.9297 C279.953,95.6172 280.414,96.2031 280.992,96.6875 C281.57,97.1562 282.219,97.5156 282.938,97.7656 C283.656,98 284.398,98.1172 285.164,98.1172 C286.695,98.1172 288.023,97.7266 289.148,96.9453 C290.273,96.1641 290.914,94.9219 291.07,93.2188 L295.406,93.2188 C295.312,94.5312 294.969,95.7031 294.375,96.7344 C293.781,97.75 293.008,98.6172 292.055,99.3359 C291.117,100.055 290.055,100.609 288.867,101 C287.68,101.391 286.43,101.586 285.117,101.586 C283.352,101.586 281.805,101.266 280.477,100.625 C279.164,99.9844 278.062,99.1016 277.172,97.9766 C276.297,96.8516 275.641,95.5078 275.203,93.9453 C274.781,92.3828 274.57,90.6562 274.57,88.7656 Z M279.117,86.5156 L291.117,86.5156 L291.117,85.1562 C291.117,84.2656 290.953,83.4609 290.625,82.7422 C290.312,82.0234 289.875,81.4141 289.312,80.9141 C288.766,80.4141 288.125,80.0391 287.391,79.7891 C286.672,79.5234 285.914,79.3906 285.117,79.3906 C284.32,79.3906 283.562,79.5234 282.844,79.7891 C282.125,80.0391 281.484,80.4141 280.922,80.9141 C280.359,81.4141 279.914,82.0234 279.586,82.7422 C279.273,83.4609 279.117,84.2656 279.117,85.1562 L279.117,86.5156 Z M302.156,101 L302.156,76.5312 L313.922,76.5312 L313.922,80.2578 L306.469,80.2578 L306.469,101 L302.156,101 Z" id="Shape" fill="#FFFFFF" fill-rule="nonzero"></path>
                <path d="M61.8864,145 L63.0568,141.705 L67.7614,141.705 L68.9318,145 L70.4091,145 L66.1364,133.364 L64.6818,133.364 L60.4091,145 L61.8864,145 Z M63.5,140.455 L65.3636,135.205 L65.4545,135.205 L67.3182,140.455 L63.5,140.455 Z M77.8807,133.364 L76.5398,133.364 L76.5398,145 L77.8807,145 L77.8807,133.364 Z M80.3366,145 L81.6776,145 L81.6776,136.273 L80.3366,136.273 L80.3366,145 Z M81.0185,134.818 C81.5412,134.818 81.973,134.409 81.973,133.909 C81.973,133.409 81.5412,133 81.0185,133 C80.4957,133 80.0639,133.409 80.0639,133.909 C80.0639,134.409 80.4957,134.818 81.0185,134.818 Z M91.2699,136.273 L89.8153,136.273 L87.4062,143.227 L87.3153,143.227 L84.9062,136.273 L83.4517,136.273 L86.679,145 L88.0426,145 L91.2699,136.273 Z M93.0398,145 L94.3807,145 L94.3807,136.273 L93.0398,136.273 L93.0398,145 Z M93.7216,134.818 C94.2443,134.818 94.6761,134.409 94.6761,133.909 C94.6761,133.409 94.2443,133 93.7216,133 C93.1989,133 92.767,133.409 92.767,133.909 C92.767,134.409 93.1989,134.818 93.7216,134.818 Z M98.1776,139.75 C98.1776,138.227 99.1207,137.364 100.405,137.364 C101.649,137.364 102.405,138.176 102.405,139.545 L102.405,145 L103.746,145 L103.746,139.455 C103.746,137.227 102.558,136.159 100.791,136.159 C99.473,136.159 98.6548,136.75 98.2457,137.636 L98.1321,137.636 L98.1321,136.273 L96.8366,136.273 L96.8366,145 L98.1776,145 L98.1776,139.75 Z M109.719,148.455 C111.81,148.455 113.491,147.5 113.491,145.25 L113.491,136.273 L112.196,136.273 L112.196,137.659 L112.06,137.659 C111.764,137.205 111.219,136.159 109.514,136.159 C107.31,136.159 105.787,137.909 105.787,140.591 C105.787,143.318 107.378,144.864 109.491,144.864 C111.196,144.864 111.741,143.864 112.037,143.386 L112.151,143.386 L112.151,145.159 C112.151,146.614 111.128,147.273 109.719,147.273 C108.134,147.273 107.577,146.438 107.219,145.955 L106.151,146.705 C106.696,147.619 107.77,148.455 109.719,148.455 Z M109.673,143.659 C107.991,143.659 107.128,142.386 107.128,140.568 C107.128,138.795 107.969,137.364 109.673,137.364 C111.31,137.364 112.173,138.682 112.173,140.568 C112.173,142.5 111.287,143.659 109.673,143.659 Z M120.446,148.273 L121.787,148.273 L121.787,143.659 L121.901,143.659 C122.196,144.136 122.764,145.182 124.446,145.182 C126.628,145.182 128.151,143.432 128.151,140.659 C128.151,137.909 126.628,136.159 124.423,136.159 C122.719,136.159 122.196,137.205 121.901,137.659 L121.741,137.659 L121.741,136.273 L120.446,136.273 L120.446,148.273 Z M121.764,140.636 C121.764,138.682 122.628,137.364 124.264,137.364 C125.969,137.364 126.81,138.795 126.81,140.636 C126.81,142.5 125.946,143.977 124.264,143.977 C122.651,143.977 121.764,142.614 121.764,140.636 Z M132.764,145.205 C134.287,145.205 135.082,144.386 135.355,143.818 L135.423,143.818 L135.423,145 L136.764,145 L136.764,139.25 C136.764,136.477 134.651,136.159 133.537,136.159 C132.219,136.159 130.719,136.614 130.037,138.205 L131.31,138.659 C131.605,138.023 132.304,137.341 133.582,137.341 C134.815,137.341 135.423,137.994 135.423,139.114 L135.423,139.159 C135.423,139.807 134.764,139.75 133.173,139.955 C131.554,140.165 129.787,140.523 129.787,142.523 C129.787,144.227 131.105,145.205 132.764,145.205 Z M132.969,144 C131.901,144 131.128,143.523 131.128,142.591 C131.128,141.568 132.06,141.25 133.105,141.114 C133.673,141.045 135.196,140.886 135.423,140.614 L135.423,141.841 C135.423,142.932 134.56,144 132.969,144 Z M139.212,148.273 L140.553,148.273 L140.553,143.659 L140.666,143.659 C140.962,144.136 141.53,145.182 143.212,145.182 C145.393,145.182 146.916,143.432 146.916,140.659 C146.916,137.909 145.393,136.159 143.189,136.159 C141.484,136.159 140.962,137.205 140.666,137.659 L140.507,137.659 L140.507,136.273 L139.212,136.273 L139.212,148.273 Z M140.53,140.636 C140.53,138.682 141.393,137.364 143.03,137.364 C144.734,137.364 145.575,138.795 145.575,140.636 C145.575,142.5 144.712,143.977 143.03,143.977 C141.416,143.977 140.53,142.614 140.53,140.636 Z M152.621,145.182 C154.393,145.182 155.689,144.295 156.098,142.977 L154.803,142.614 C154.462,143.523 153.672,143.977 152.621,143.977 C151.047,143.977 149.962,142.96 149.899,141.091 L156.234,141.091 L156.234,140.523 C156.234,137.273 154.303,136.159 152.484,136.159 C150.121,136.159 148.553,138.023 148.553,140.705 C148.553,143.386 150.098,145.182 152.621,145.182 Z M149.899,139.932 C149.99,138.574 150.95,137.364 152.484,137.364 C153.939,137.364 154.871,138.455 154.871,139.932 L149.899,139.932 Z M158.274,145 L159.615,145 L159.615,139.477 C159.615,138.295 160.547,137.432 161.82,137.432 C162.178,137.432 162.547,137.5 162.638,137.523 L162.638,136.159 C162.484,136.148 162.132,136.136 161.933,136.136 C160.888,136.136 159.979,136.727 159.661,137.591 L159.57,137.591 L159.57,136.273 L158.274,136.273 L158.274,145 Z M170.705,145 L172.023,145 L173.932,138.295 L174.068,138.295 L175.977,145 L177.295,145 L179.955,136.273 L178.545,136.273 L176.659,142.932 L176.568,142.932 L174.727,136.273 L173.295,136.273 L171.432,142.955 L171.341,142.955 L169.455,136.273 L168.045,136.273 L170.705,145 Z M181.727,145 L183.068,145 L183.068,136.273 L181.727,136.273 L181.727,145 Z M182.409,134.818 C182.932,134.818 183.364,134.409 183.364,133.909 C183.364,133.409 182.932,133 182.409,133 C181.886,133 181.455,133.409 181.455,133.909 C181.455,134.409 181.886,134.818 182.409,134.818 Z M189.32,136.273 L187.456,136.273 L187.456,134.182 L186.115,134.182 L186.115,136.273 L184.797,136.273 L184.797,137.409 L186.115,137.409 L186.115,142.864 C186.115,144.386 187.342,145.114 188.479,145.114 C188.979,145.114 189.297,145.023 189.479,144.955 L189.206,143.75 C189.092,143.773 188.911,143.818 188.615,143.818 C188.024,143.818 187.456,143.636 187.456,142.5 L187.456,137.409 L189.32,137.409 L189.32,136.273 Z M192.865,139.75 C192.865,138.227 193.837,137.364 195.161,137.364 C196.422,137.364 197.183,138.159 197.183,139.545 L197.183,145 L198.524,145 L198.524,139.455 C198.524,137.21 197.331,136.159 195.547,136.159 C194.172,136.159 193.388,136.733 192.979,137.636 L192.865,137.636 L192.865,133.364 L191.524,133.364 L191.524,145 L192.865,145 L192.865,139.75 Z M209.023,145.182 C211.386,145.182 212.977,143.386 212.977,140.682 C212.977,137.955 211.386,136.159 209.023,136.159 C206.659,136.159 205.068,137.955 205.068,140.682 C205.068,143.386 206.659,145.182 209.023,145.182 Z M209.023,143.977 C207.227,143.977 206.409,142.432 206.409,140.682 C206.409,138.932 207.227,137.364 209.023,137.364 C210.818,137.364 211.636,138.932 211.636,140.682 C211.636,142.432 210.818,143.977 209.023,143.977 Z M220.524,141.432 C220.524,143.068 219.274,143.818 218.274,143.818 C217.161,143.818 216.365,143 216.365,141.727 L216.365,136.273 L215.024,136.273 L215.024,141.818 C215.024,144.045 216.206,145.114 217.842,145.114 C219.161,145.114 220.024,144.409 220.433,143.523 L220.524,143.523 L220.524,145 L221.865,145 L221.865,136.273 L220.524,136.273 L220.524,141.432 Z M224.321,145 L225.662,145 L225.662,139.477 C225.662,138.295 226.594,137.432 227.866,137.432 C228.224,137.432 228.594,137.5 228.685,137.523 L228.685,136.159 C228.531,136.148 228.179,136.136 227.98,136.136 C226.935,136.136 226.026,136.727 225.707,137.591 L225.616,137.591 L225.616,136.273 L224.321,136.273 L224.321,145 Z M236.115,133.364 L234.774,133.364 L234.774,145 L236.115,145 L236.115,133.364 Z M242.116,145.182 C244.48,145.182 246.071,143.386 246.071,140.682 C246.071,137.955 244.48,136.159 242.116,136.159 C239.753,136.159 238.162,137.955 238.162,140.682 C238.162,143.386 239.753,145.182 242.116,145.182 Z M242.116,143.977 C240.321,143.977 239.503,142.432 239.503,140.682 C239.503,138.932 240.321,137.364 242.116,137.364 C243.912,137.364 244.73,138.932 244.73,140.682 C244.73,142.432 243.912,143.977 242.116,143.977 Z M249.459,139.75 C249.459,138.227 250.402,137.364 251.686,137.364 C252.93,137.364 253.686,138.176 253.686,139.545 L253.686,145 L255.027,145 L255.027,139.455 C255.027,137.227 253.839,136.159 252.072,136.159 C250.754,136.159 249.936,136.75 249.527,137.636 L249.413,137.636 L249.413,136.273 L248.118,136.273 L248.118,145 L249.459,145 L249.459,139.75 Z M261,148.455 C263.091,148.455 264.773,147.5 264.773,145.25 L264.773,136.273 L263.477,136.273 L263.477,137.659 L263.341,137.659 C263.045,137.205 262.5,136.159 260.795,136.159 C258.591,136.159 257.068,137.909 257.068,140.591 C257.068,143.318 258.659,144.864 260.773,144.864 C262.477,144.864 263.023,143.864 263.318,143.386 L263.432,143.386 L263.432,145.159 C263.432,146.614 262.409,147.273 261,147.273 C259.415,147.273 258.858,146.438 258.5,145.955 L257.432,146.705 C257.977,147.619 259.051,148.455 261,148.455 Z M260.955,143.659 C259.273,143.659 258.409,142.386 258.409,140.568 C258.409,138.795 259.25,137.364 260.955,137.364 C262.591,137.364 263.455,138.682 263.455,140.568 C263.455,142.5 262.568,143.659 260.955,143.659 Z M275.523,136.273 L273.659,136.273 L273.659,134.182 L272.318,134.182 L272.318,136.273 L271,136.273 L271,137.409 L272.318,137.409 L272.318,142.864 C272.318,144.386 273.545,145.114 274.682,145.114 C275.182,145.114 275.5,145.023 275.682,144.955 L275.409,143.75 C275.295,143.773 275.114,143.818 274.818,143.818 C274.227,143.818 273.659,143.636 273.659,142.5 L273.659,137.409 L275.523,137.409 L275.523,136.273 Z M281.105,145.182 C282.878,145.182 284.173,144.295 284.582,142.977 L283.287,142.614 C282.946,143.523 282.156,143.977 281.105,143.977 C279.531,143.977 278.446,142.96 278.384,141.091 L284.719,141.091 L284.719,140.523 C284.719,137.273 282.787,136.159 280.969,136.159 C278.605,136.159 277.037,138.023 277.037,140.705 C277.037,143.386 278.582,145.182 281.105,145.182 Z M278.384,139.932 C278.474,138.574 279.435,137.364 280.969,137.364 C282.423,137.364 283.355,138.455 283.355,139.932 L278.384,139.932 Z M286.759,145 L288.099,145 L288.099,139.477 C288.099,138.295 289.031,137.432 290.304,137.432 C290.662,137.432 291.031,137.5 291.122,137.523 L291.122,136.159 C290.969,136.148 290.616,136.136 290.418,136.136 C289.372,136.136 288.463,136.727 288.145,137.591 L288.054,137.591 L288.054,136.273 L286.759,136.273 L286.759,145 Z M292.712,145 L294.053,145 L294.053,139.545 C294.053,138.267 294.984,137.364 296.03,137.364 C297.047,137.364 297.757,138.028 297.757,139.023 L297.757,145 L299.121,145 L299.121,139.318 C299.121,138.193 299.825,137.364 301.053,137.364 C302.007,137.364 302.825,137.869 302.825,139.159 L302.825,145 L304.166,145 L304.166,139.159 C304.166,137.108 303.064,136.159 301.507,136.159 C300.257,136.159 299.342,136.733 298.893,137.636 L298.803,137.636 C298.371,136.705 297.609,136.159 296.462,136.159 C295.325,136.159 294.484,136.705 294.121,137.636 L294.007,137.636 L294.007,136.273 L292.712,136.273 L292.712,145 Z M318.254,136.273 L316.8,136.273 L314.391,143.227 L314.3,143.227 L311.891,136.273 L310.436,136.273 L313.663,145 L315.027,145 L318.254,136.273 Z M320.024,145 L321.365,145 L321.365,136.273 L320.024,136.273 L320.024,145 Z M320.706,134.818 C321.229,134.818 321.661,134.409 321.661,133.909 C321.661,133.409 321.229,133 320.706,133 C320.183,133 319.751,133.409 319.751,133.909 C319.751,134.409 320.183,134.818 320.706,134.818 Z M330.003,138.227 C329.582,136.989 328.639,136.159 326.912,136.159 C325.071,136.159 323.707,137.205 323.707,138.682 C323.707,139.886 324.423,140.693 326.026,141.068 L327.48,141.409 C328.361,141.614 328.776,142.034 328.776,142.636 C328.776,143.386 327.98,144 326.73,144 C325.634,144 324.946,143.528 324.707,142.591 L323.435,142.909 C323.747,144.392 324.969,145.182 326.753,145.182 C328.781,145.182 330.162,144.074 330.162,142.568 C330.162,141.352 329.401,140.585 327.844,140.205 L326.548,139.886 C325.514,139.631 325.048,139.284 325.048,138.614 C325.048,137.864 325.844,137.318 326.912,137.318 C328.082,137.318 328.565,137.966 328.798,138.568 L330.003,138.227 Z M332.18,145 L333.521,145 L333.521,136.273 L332.18,136.273 L332.18,145 Z M332.862,134.818 C333.385,134.818 333.817,134.409 333.817,133.909 C333.817,133.409 333.385,133 332.862,133 C332.339,133 331.908,133.409 331.908,133.909 C331.908,134.409 332.339,134.818 332.862,134.818 Z M339.523,145.182 C341.886,145.182 343.477,143.386 343.477,140.682 C343.477,137.955 341.886,136.159 339.523,136.159 C337.159,136.159 335.568,137.955 335.568,140.682 C335.568,143.386 337.159,145.182 339.523,145.182 Z M339.523,143.977 C337.727,143.977 336.909,142.432 336.909,140.682 C336.909,138.932 337.727,137.364 339.523,137.364 C341.318,137.364 342.136,138.932 342.136,140.682 C342.136,142.432 341.318,143.977 339.523,143.977 Z M346.865,139.75 C346.865,138.227 347.808,137.364 349.092,137.364 C350.337,137.364 351.092,138.176 351.092,139.545 L351.092,145 L352.433,145 L352.433,139.455 C352.433,137.227 351.246,136.159 349.479,136.159 C348.161,136.159 347.342,136.75 346.933,137.636 L346.82,137.636 L346.82,136.273 L345.524,136.273 L345.524,145 L346.865,145 L346.865,139.75 Z M363.27,136.273 L361.315,136.273 L361.315,135.386 C361.315,134.523 361.679,134.068 362.565,134.068 C362.952,134.068 363.179,134.159 363.315,134.205 L363.702,133.045 C363.497,132.955 363.088,132.818 362.429,132.818 C361.179,132.818 359.974,133.568 359.974,135.068 L359.974,136.273 L358.565,136.273 L358.565,137.409 L359.974,137.409 L359.974,145 L361.315,145 L361.315,137.409 L363.27,137.409 L363.27,136.273 Z M368.335,145.182 C370.699,145.182 372.29,143.386 372.29,140.682 C372.29,137.955 370.699,136.159 368.335,136.159 C365.972,136.159 364.381,137.955 364.381,140.682 C364.381,143.386 365.972,145.182 368.335,145.182 Z M368.335,143.977 C366.54,143.977 365.722,142.432 365.722,140.682 C365.722,138.932 366.54,137.364 368.335,137.364 C370.131,137.364 370.949,138.932 370.949,140.682 C370.949,142.432 370.131,143.977 368.335,143.977 Z M374.337,145 L375.678,145 L375.678,139.477 C375.678,138.295 376.609,137.432 377.882,137.432 C378.24,137.432 378.609,137.5 378.7,137.523 L378.7,136.159 C378.547,136.148 378.195,136.136 377.996,136.136 C376.95,136.136 376.041,136.727 375.723,137.591 L375.632,137.591 L375.632,136.273 L374.337,136.273 L374.337,145 Z M389.426,133.364 L389.426,141.682 C389.426,143.131 388.733,143.909 387.517,143.909 C386.409,143.909 385.608,143.261 385.608,142.273 L384.222,142.273 C384.222,144.062 385.608,145.159 387.517,145.159 C389.54,145.159 390.835,143.915 390.835,141.682 L390.835,133.364 L389.426,133.364 Z M397.023,145.182 C399.386,145.182 400.977,143.386 400.977,140.682 C400.977,137.955 399.386,136.159 397.023,136.159 C394.659,136.159 393.068,137.955 393.068,140.682 C393.068,143.386 394.659,145.182 397.023,145.182 Z M397.023,143.977 C395.227,143.977 394.409,142.432 394.409,140.682 C394.409,138.932 395.227,137.364 397.023,137.364 C398.818,137.364 399.636,138.932 399.636,140.682 C399.636,142.432 398.818,143.977 397.023,143.977 Z M403.575,148.25 C404.786,148.25 405.643,147.608 406.143,146.273 L409.859,136.295 L408.393,136.273 L405.984,143.227 L405.893,143.227 L403.484,136.273 L402.03,136.273 L405.257,145.045 L405.007,145.727 C404.53,147.034 403.916,147.159 402.939,146.909 L402.598,148.091 C402.734,148.159 403.121,148.25 403.575,148.25 Z M417.815,138.227 C417.395,136.989 416.452,136.159 414.724,136.159 C412.884,136.159 411.52,137.205 411.52,138.682 C411.52,139.886 412.236,140.693 413.838,141.068 L415.293,141.409 C416.173,141.614 416.588,142.034 416.588,142.636 C416.588,143.386 415.793,144 414.543,144 C413.446,144 412.759,143.528 412.52,142.591 L411.247,142.909 C411.56,144.392 412.781,145.182 414.565,145.182 C416.594,145.182 417.974,144.074 417.974,142.568 C417.974,141.352 417.213,140.585 415.656,140.205 L414.361,139.886 C413.327,139.631 412.861,139.284 412.861,138.614 C412.861,137.864 413.656,137.318 414.724,137.318 C415.895,137.318 416.378,137.966 416.611,138.568 L417.815,138.227 Z M423.788,136.273 L421.925,136.273 L421.925,134.182 L420.584,134.182 L420.584,136.273 L419.266,136.273 L419.266,137.409 L420.584,137.409 L420.584,142.864 C420.584,144.386 421.811,145.114 422.947,145.114 C423.447,145.114 423.766,145.023 423.947,144.955 L423.675,143.75 C423.561,143.773 423.379,143.818 423.084,143.818 C422.493,143.818 421.925,143.636 421.925,142.5 L421.925,137.409 L423.788,137.409 L423.788,136.273 Z M425.805,145 L427.146,145 L427.146,139.477 C427.146,138.295 428.078,137.432 429.351,137.432 C429.709,137.432 430.078,137.5 430.169,137.523 L430.169,136.159 C430.016,136.148 429.663,136.136 429.464,136.136 C428.419,136.136 427.51,136.727 427.192,137.591 L427.101,137.591 L427.101,136.273 L425.805,136.273 L425.805,145 Z M435.152,145.182 C436.925,145.182 438.22,144.295 438.629,142.977 L437.334,142.614 C436.993,143.523 436.203,143.977 435.152,143.977 C433.578,143.977 432.493,142.96 432.43,141.091 L438.766,141.091 L438.766,140.523 C438.766,137.273 436.834,136.159 435.016,136.159 C432.652,136.159 431.084,138.023 431.084,140.705 C431.084,143.386 432.629,145.182 435.152,145.182 Z M432.43,139.932 C432.521,138.574 433.482,137.364 435.016,137.364 C436.47,137.364 437.402,138.455 437.402,139.932 L432.43,139.932 Z M443.374,145.205 C444.896,145.205 445.692,144.386 445.964,143.818 L446.033,143.818 L446.033,145 L447.374,145 L447.374,139.25 C447.374,136.477 445.26,136.159 444.146,136.159 C442.828,136.159 441.328,136.614 440.646,138.205 L441.919,138.659 C442.214,138.023 442.913,137.341 444.192,137.341 C445.425,137.341 446.033,137.994 446.033,139.114 L446.033,139.159 C446.033,139.807 445.374,139.75 443.783,139.955 C442.163,140.165 440.396,140.523 440.396,142.523 C440.396,144.227 441.714,145.205 443.374,145.205 Z M443.578,144 C442.51,144 441.737,143.523 441.737,142.591 C441.737,141.568 442.669,141.25 443.714,141.114 C444.283,141.045 445.805,140.886 446.033,140.614 L446.033,141.841 C446.033,142.932 445.169,144 443.578,144 Z M449.821,145 L451.162,145 L451.162,139.545 C451.162,138.267 452.094,137.364 453.139,137.364 C454.156,137.364 454.866,138.028 454.866,139.023 L454.866,145 L456.23,145 L456.23,139.318 C456.23,138.193 456.935,137.364 458.162,137.364 C459.116,137.364 459.935,137.869 459.935,139.159 L459.935,145 L461.276,145 L461.276,139.159 C461.276,137.108 460.173,136.159 458.616,136.159 C457.366,136.159 456.452,136.733 456.003,137.636 L455.912,137.636 C455.48,136.705 454.719,136.159 453.571,136.159 C452.435,136.159 451.594,136.705 451.23,137.636 L451.116,137.636 L451.116,136.273 L449.821,136.273 L449.821,145 Z" id="Shape" fill="#C4C3C6" fill-rule="nonzero"></path>
                <path d="M659.86,91 C675.31,90.09 691.8,88 705.97,88 C711.48,88 715.97,103.24 715.97,115.76 C715.97,122.98 715.06,146.51 713.21,165.65 C711.85,179.73 709.28,193.88 709.28,203.47 C713.28,203.47 714.39,202.64 715.99,206.21 C720.36,216 722.99,230.53 715.99,235.68 C711.81,238.75 704.93,238.75 698.18,239.79 C684.12,241.96 680.95,242.66 671.24,243.9 C669.843,244.086 668.424,244.045 667.04,243.78 C663.22,244.78 658.64,245 654.11,245.7 C639.81,247.91 623.22,248.62 613.35,249.89 C606.72,250.73 600.43,246.99 597.5,236.97 C592.97,221.97 603.73,155.61 605.14,137.45 C600.47,139.061 595.627,140.115 590.71,140.59 C581.71,140.59 578.52,129.98 578.52,117.59 C578.52,105.2 583.69,94.59 592.67,94.59 C599.34,94.51 640.39,91.27 659.86,91 Z" id="Path" fill="#000000" fill-rule="nonzero"></path>
                <path d="M610.09,212.37 C607.27,212.92 604.73,215.46 602.5,220 C605.24,194.313 607.77,172.7 610.09,155.16 C611.43,144.95 611.79,126.34 610.09,115.78 C609.09,109.02 605.86,103.1 601.09,99.51 L703.78,94 C708.193,98.14 710.397,109.78 710.390017,128.92 C710.383,148.06 708.18,172.917 703.78,203.49 C673.84,205.35 612.92,211.82 610.09,212.37 Z" id="Path" fill="#FFFFFF"></path>
                <path d="M638.14,114 L621,115.39 L621,121.69 L631.48,120.85 L631.48,146.51 C631.482,147.515 631.202,148.501 630.672,149.355 C630.141,150.208 629.382,150.896 628.48,151.34 L624.23,153.4 L626,160 L632.33,156.88 C634.516,155.768 636.259,153.945 637.27,151.71 C637.854,150.416 638.147,149.01 638.13,147.59 L638.14,114 Z" id="Path" fill="#000000" fill-rule="nonzero"></path>
                <path d="M653.94,117.59 C662.02,118.82 670.46,118.15 678.48,117.5 C685.65,116.88 693.27,116.75 699.74,114.1 C700.58,113.72 700.13,112.88 699.49,112.74 C692.04,111.48 684.05,112.99 676.49,113.8 C668.89,114.44 661.08,114.91 653.73,116.91 C653.53,117.09 653.54,117.61 653.97,117.59 L653.94,117.59 Z" id="Path" fill="#000000" fill-rule="nonzero"></path>
                <path d="M670.25,135.31 C675.51,136.65 680.99,136.09 686.19,135.55 C690.85,135.03 695.79,135.01 699.97,132.44 C700.51,132.08 700.2,131.23 699.79,131.07 C694.94,129.72 689.79,131.12 684.84,131.82 C679.91,132.36 674.84,132.73 670.09,134.63 C669.96,134.8 669.98,135.32 670.25,135.31 Z" id="Path" fill="#000000" fill-rule="nonzero"></path>
                <path d="M665.82,134.76 C663.67,132.95 661.15,132.92 658.76,132.91 C656.62,132.91 654.41,132.44 652.19,134.46 C652.063,134.651 651.986,134.871 651.965,135.1 C651.944,135.328 651.98,135.558 652.07,135.77 C654.07,137.56 656.54,136.77 658.83,136.59 C661.1,136.59 663.41,136.75 665.83,135.43 C665.92,135.27 665.98,134.78 665.83,134.76 L665.82,134.76 Z" id="Path" fill="#000000" fill-rule="nonzero"></path>
                <path d="M681.28,151.22 C676.28,153.22 670.77,153.53 665.56,153.77 C660.89,153.96 656,154.66 651.56,152.86 C650.98,152.6 651.17,151.76 651.56,151.55 C656.19,149.55 661.48,150.13 666.43,150.08 C671.37,149.86 676.43,149.47 681.37,150.56 C681.52,150.71 681.57,151.19 681.29,151.22 L681.28,151.22 Z" id="Path" fill="#000000" fill-rule="nonzero"></path>
                <path d="M599.78,107 C600.99,108.35 605.63,111.89 605.63,120.4 C605.493,125.072 604.972,129.724 604.07,134.31 C595.62,136.21 589.2,137.85 588.48,136.52 C589.889,136.081 591.181,135.331 592.261,134.325 C593.341,133.319 594.182,132.084 594.72,130.71 C596.423,126.633 597.221,122.235 597.06,117.82 C597.099,115.953 596.715,114.101 595.935,112.403 C595.156,110.706 594.002,109.207 592.56,108.02 L599.78,107 Z" id="Path" fill="#FFFFFF"></path>
                <path d="M604.15,134.31 C595.66,136.21 589.2,137.87 588.48,136.5 C589.891,136.071 591.188,135.329 592.273,134.33 C593.359,133.331 594.205,132.101 594.75,130.73 C595.771,127.963 597.494,125.509 599.75,123.61 C600.53,122.88 601.493,122.374 602.537,122.147 C603.581,121.92 604.667,121.98 605.68,122.32 C605.427,126.345 604.916,130.35 604.15,134.31 Z" id="Path" fill="#D3D8E0"></path>
                <path d="M589.87,111 C591.437,113.279 592.213,116.008 592.08,118.77 C592.08,119.54 592.08,120.28 592.01,121 L585.85,122 C585.74,120.782 585.74,119.558 585.85,118.34 C586.029,116.416 586.637,114.557 587.63,112.9 C588.185,112.07 588.961,111.412 589.87,111 Z" id="Path" fill="#D3D8E0"></path>
                <path d="M707.9,209 C708.9,209 710.48,211.65 711.64,216 C713.49,223 710.43,226.21 707.05,228.17 C698.68,229.36 629.4,236.57 628.78,235.11 C618.033,238.61 613.413,238.89 614.92,235.95 C616.12,233.64 615.77,232.3 615.83,226.81 C615.965,224.937 615.692,223.058 615.031,221.3 C614.37,219.543 613.336,217.95 612,216.63 L707.9,209 Z" id="Path" fill="#FFFFFF"></path>
                <path d="M713.62,228.61 C711.98,235.39 639.73,238.54 631.81,239.47 C623.89,240.4 611.47,242.39 612.99,239.47 C614.115,236.78 615.938,234.439 618.27,232.69 C620.27,231.31 681.27,220.46 695.47,218.77 C704.93,217.63 710.127,215.373 711.06,212 C715.46,218.76 713.62,226.52 713.62,228.61 Z" id="Path" fill="#D3D8E0"></path>
                <path d="M609.57,221 C610.764,223.279 611.255,225.862 610.98,228.42 C610.96,229.113 610.903,229.804 610.81,230.49 L605.64,231 C605.607,229.857 605.673,228.712 605.84,227.58 C606.072,225.808 606.675,224.104 607.61,222.58 C608.101,221.851 608.797,221.284 609.61,220.95 L609.57,221 Z" id="Path" fill="#D3D8E0"></path>
                <path d="M616.19,170.89 L701.75,162 C702.65,161.9 703.28,162.77 703.15,164 L699.92,190.84 C699.887,191.375 699.687,191.886 699.348,192.3 C699.009,192.715 698.548,193.012 698.03,193.15 L612.47,202 C611.56,202.1 610.94,201.22 611.07,200.05 L614.3,173.21 C614.33,172.673 614.529,172.16 614.869,171.744 C615.208,171.327 615.671,171.028 616.19,170.89 Z" id="Path" fill="#000000"></path>
                <path d="M625.06,180.14 C631.44,181.14 638.11,180.6 644.44,180.08 C650.1,179.59 656.11,179.49 661.23,177.37 C661.88,177.07 661.53,176.37 661.02,176.28 C655.15,175.28 648.84,176.48 642.84,177.12 C636.84,177.76 630.67,178 624.84,179.6 C624.68,179.74 624.69,180.16 625.02,180.14 L625.06,180.14 Z" id="Path" fill="#FFFFFF" fill-rule="nonzero"></path>
                <path d="M640.56,188.93 C644.68,190 648.98,189.56 653.05,189.13 C656.7,188.72 660.58,188.7 663.85,186.65 C663.93,186.577 663.991,186.487 664.028,186.385 C664.066,186.284 664.078,186.175 664.064,186.068 C664.051,185.961 664.011,185.859 663.949,185.771 C663.888,185.682 663.806,185.61 663.71,185.56 C659.9,184.47 655.85,185.56 651.99,186.15 C648.13,186.74 644.15,186.87 640.43,188.38 C640.33,188.52 640.34,188.94 640.56,188.93 Z" id="Path" fill="#FFFFFF" fill-rule="nonzero"></path>
                <path d="M634.56,188.79 C632.92,187.43 630.99,187.41 629.16,187.4 C627.52,187.4 625.84,187.06 624.16,188.57 C624.058,188.714 623.996,188.882 623.98,189.058 C623.965,189.233 623.995,189.41 624.07,189.57 C625.57,190.9 627.48,190.3 629.23,190.17 C630.98,190.04 632.73,190.29 634.56,189.3 C634.62,189.18 634.67,188.82 634.56,188.8 L634.56,188.79 Z" id="Path" fill="#FFFFFF" fill-rule="nonzero"></path>
                <path d="M652.75,178.77 C659.13,179.77 670.07,177.61 676.4,177.09 C682.06,176.59 688.07,176.5 693.19,174.38 C693.84,174.08 693.49,173.38 692.98,173.29 C687.11,172.29 680.8,173.48 674.8,174.13 C668.8,174.63 658.54,175.13 652.8,176.77 C654.213,176.994 655.64,177.121 657.07,177.15 L652.75,178.77 Z" id="Path" fill="#FFFFFF" fill-rule="nonzero"></path>
                <path d="M670.06,185.92 C674.19,187 678.48,186.56 682.55,186.13 C686.2,185.71 690.08,185.7 693.35,183.65 C693.43,183.577 693.491,183.487 693.529,183.385 C693.566,183.284 693.578,183.175 693.564,183.068 C693.551,182.961 693.511,182.859 693.45,182.771 C693.388,182.682 693.306,182.61 693.21,182.56 C689.41,181.47 685.35,182.56 681.49,183.15 C677.63,183.74 673.66,183.86 669.94,185.38 C669.83,185.52 669.85,185.93 670.06,185.92 Z" id="Path" fill="#FFFFFF" fill-rule="nonzero"></path>
                <path d="M664.88,186.79 C663.24,185.43 661.32,185.41 659.49,185.4 C657.85,185.4 656.16,185.06 654.49,186.57 C654.388,186.714 654.326,186.882 654.31,187.058 C654.295,187.233 654.326,187.41 654.4,187.57 C655.9,188.9 657.81,188.3 659.57,188.17 C661.33,188.04 663.07,188.29 664.89,187.3 C664.96,187.18 665.01,186.82 664.89,186.8 L664.88,186.79 Z" id="Path" fill="#FFFFFF" fill-rule="nonzero"></path>
                <path d="M700,222 C699.94,222 694.17,219.08 691.58,215.69 C690.12,213.79 689.13,212.84 687.91,212.32 L687.81,212.32 C687.215,212.035 686.663,211.668 686.17,211.23 C682.57,208.23 680.23,204.23 678.91,199.08 C678.66,198.08 678.5,197.35 678.22,195.73 C678.09,194.97 678.03,194.73 677.96,194.29 C677.945,194.114 677.945,193.937 677.96,193.76 L677.96,188.63 C677.958,188.415 677.981,188.2 678.03,187.99 L678.45,186.28 C678.85,184.63 679.03,183.9 679.21,182.99 C679.36,182.32 679.49,181.76 679.75,180.65 L679.75,180.56 C680.19,178.76 680.36,177.96 680.52,176.99 C680.785,174.729 680.718,172.442 680.32,170.2 C680.32,169.9 680.32,169.77 680.26,169.6 C679.72,164.967 680.809,160.289 683.34,156.37 C684.421,154.529 685.988,153.02 687.87,152.01 C689.79,151.01 690.73,150.57 691.92,150.08 C692.69,149.82 693.378,149.363 693.917,148.754 C694.455,148.145 694.825,147.406 694.99,146.61 C695.452,144.158 696.714,141.928 698.58,140.27 C700.71,138.506 703.207,137.242 705.89,136.57 C706.095,136.503 706.306,136.456 706.52,136.43 L706.61,136.43 C706.951,136.223 707.341,136.113 707.74,136.11 L710.81,136.11 C711.041,136.112 711.27,136.149 711.49,136.22 C711.927,136.357 712.376,136.458 712.83,136.52 L712.9,136.52 C713.487,136.61 714.069,136.737 714.64,136.9 C717.076,137.658 719.572,138.209 722.1,138.55 C725.2,138.907 728.138,140.127 730.58,142.07 C731.337,142.69 732.131,143.261 732.96,143.78 C734.569,144.767 736.071,145.92 737.44,147.22 C739.054,148.785 740.838,150.164 742.76,151.33 C744.809,152.532 746.585,154.148 747.974,156.075 C749.364,158.002 750.336,160.197 750.83,162.52 L750.95,163.03 C751.503,165.539 752.225,168.008 753.11,170.42 C754.38,173.44 755.059,176.675 755.11,179.95 L755.11,180.05 C755.103,180.181 755.138,180.311 755.21,180.42 C755.493,180.862 755.642,181.376 755.640076,181.9 L755.640076,187.63 C755.643,188.027 755.557,188.42 755.39,188.78 C755.016,192.614 753.281,196.186 750.5,198.85 C750.194,199.14 749.979,199.513 749.881,199.923 C749.783,200.334 749.807,200.764 749.95,201.16 C750.633,204.427 750.088,207.83 748.42,210.72 C746.57,213.99 744.2,215.62 739.66,217.58 C738.31,218.16 736.97,218.68 735.66,219.15 C735.86,219.83 736.08,220.62 736.39,221.68 L736.61,222.47 C737,223.82 737.26,224.74 737.54,225.67 C740.273,234.89 743.003,244.11 745.73,253.33 C745.912,253.902 745.895,254.518 745.683,255.079 C745.47,255.64 745.075,256.113 744.56,256.42 C744.146,256.695 743.651,256.82 743.156,256.774 C742.661,256.729 742.197,256.516 741.84,256.17 L733.58,248.51 C733,251.15 732.66,252.74 732.31,254.45 C732.21,254.97 732.11,255.45 731.91,256.23 L731.91,256.31 C731.603,257.434 731.392,258.581 731.28,259.74 C731.232,260.362 730.948,260.942 730.488,261.361 C730.027,261.781 729.423,262.01 728.8,262 L728.62,262 C728.106,261.983 727.612,261.8 727.21,261.48 C726.808,261.159 726.521,260.717 726.39,260.22 C725.7,257.88 724.97,255.43 724.11,252.53 C724.27,253.06 720.58,240.61 719.55,237.13 C718.7,234.25 717.91,231.61 717.17,229.13 L707.89,260.27 C707.764,260.789 707.463,261.247 707.036,261.568 C706.61,261.888 706.085,262.051 705.553,262.027 C705.02,262.003 704.512,261.795 704.115,261.438 C703.719,261.081 703.459,260.598 703.38,260.07 C702.38,255.62 701.6,251.91 700.85,248.45 C700.26,249.02 699.56,249.66 698.56,250.57 C696.94,252.04 696.23,252.71 695.41,253.57 C695.076,253.923 694.696,254.229 694.28,254.48 L693.98,254.69 C693.774,255.082 693.484,255.424 693.13,255.69 C692.787,255.949 692.381,256.113 691.954,256.164 C691.527,256.215 691.094,256.151 690.7,255.98 C690.035,255.696 689.498,255.177 689.192,254.522 C688.886,253.867 688.832,253.123 689.04,252.43 C689.04,252.31 689.04,252.22 689.12,252.1 C689.38,251.19 689.65,250.27 690,249.1 C690.107,248.554 693.44,239.52 700,222 Z" id="Path" fill="#000000" fill-rule="nonzero"></path>
                <path d="M720,209 C720.27,208.52 720.8,208.79 721.15,208.2 C719.581,208.661 717.94,208.831 716.31,208.7 C712.477,208.634 708.73,207.554 705.45,205.57 C701.252,203.149 697.856,199.55 695.68,195.22 C692.255,188.694 691.419,181.116 693.34,174 C694.767,168.131 698.149,162.922 702.93,159.23 C705.018,157.805 707.227,156.564 709.53,155.52 C711.968,154.359 714.667,153.855 717.36,154.06 C722.719,154.152 727.876,156.124 731.93,159.63 C734.609,161.841 736.825,164.56 738.45,167.63 C740.833,171.955 742.056,176.823 742,181.76 C741.84,189.98 739,196.81 733.52,202.3 C730.065,205.81 725.601,208.152 720.75,209 C720.607,209.015 720.463,209.015 720.32,209 C720.213,209.01 720.106,209.01 720,209 Z M706.3,201.84 C706.473,202.154 706.754,202.395 707.09,202.52 C709.675,203.928 712.539,204.747 715.478,204.92 C718.417,205.093 721.357,204.615 724.09,203.52 C726.661,202.581 728.97,201.038 730.82,199.02 C731.825,198.242 732.691,197.299 733.38,196.23 C736.15,192.369 737.773,187.803 738.059,183.059 C738.346,178.315 737.285,173.587 735,169.42 C734.459,168.121 733.607,166.974 732.52,166.08 C732.501,165.897 732.445,165.719 732.353,165.559 C732.262,165.399 732.138,165.26 731.99,165.15 C726.26,159.09 719.47,156.92 711.68,158.77 C708.203,159.572 705.042,161.389 702.6,163.99 C702.324,164.112 702.083,164.301 701.9,164.54 C700.661,165.804 699.595,167.227 698.73,168.77 C694.16,177 694.11,185.36 698.39,193.77 C698.635,194.429 699.075,194.997 699.65,195.4 C699.715,195.858 699.921,196.285 700.24,196.62 C700.8,197.3 701.43,197.92 701.98,198.62 C703.173,199.978 704.642,201.066 706.29,201.81 L706.3,201.84 Z" id="Shape" fill="#D3D8E0" fill-rule="nonzero"></path>
                <path d="M739.28,246.06 C738.308,245.307 737.42,244.452 736.63,243.51 C734.57,241.4 732.56,239.22 730.39,236.93 C729.64,241.4 728.93,245.7 728.22,250 L728.06,250 C727.82,249.26 727.58,248.52 727.36,247.77 C726.02,243.17 722.79,232.23 721.46,227.61 C721.36,227.25 721.04,226.85 721.38,226.48 C721.72,226.11 721.93,226.59 722.21,226.65 C722.379,226.679 722.551,226.679 722.72,226.65 C724.26,226.48 726.18,226.85 727.72,226.65 C729.26,226.45 729.26,223.86 730.72,223.96 C730.905,223.947 731.091,223.976 731.263,224.043 C731.436,224.111 731.592,224.215 731.72,224.35 C732.14,224.9 732.16,224.35 732.3,224 C732.92,225.16 735.95,234.5 736.3,235.65 C736.93,237.88 737.72,240.05 738.3,242.29 C738.61,243.53 738.95,244.75 739.3,245.98 L739.28,246.06 Z" id="Path" fill="#D3D8E0" fill-rule="nonzero"></path>
                <path d="M712.39,230.6 C712.85,230.1 712.65,229.45 712.86,228.86 C713.19,229.12 713.1,229.45 713.04,229.72 C712.17,233.53 708.49,246.31 707.28,250.01 C707.03,250.79 706.88,251.61 706.67,252.41 C706.61,252.65 706.67,252.94 706.24,253 C706.06,250.83 705.44,248.77 705.09,246.64 C704.74,244.51 704.24,242.44 703.81,240.34 C703.69,239.73 703.63,239.34 703.02,240.03 C700.19,243.12 697.31,246.11 694.44,249.14 C694.342,249.2 694.238,249.25 694.13,249.29 C695.72,243.78 700,229.34 701.77,224 C702.2,224.16 702.14,224.38 702.1,224.55 C702.01,224.94 702.1,225.1 702.48,224.99 C702.896,224.893 703.332,224.915 703.736,225.053 C704.141,225.191 704.499,225.439 704.77,225.77 C705.32,226.35 706.2,226.08 706.77,226.67 C707.77,227.78 709.26,228.13 710.24,229.29 C710.413,229.495 710.655,229.63 710.92,229.67 C711.223,229.697 711.515,229.795 711.772,229.957 C712.029,230.118 712.244,230.339 712.4,230.6 L712.39,230.6 Z" id="Path" fill="#D3D8E0" fill-rule="nonzero"></path>
                <path d="M695.71,211.92 C695.328,210.418 694.823,208.949 694.2,207.53 C694.128,207.127 694.145,206.713 694.251,206.317 C694.356,205.922 694.547,205.554 694.81,205.24 C695.127,205.049 695.502,204.976 695.868,205.034 C696.234,205.093 696.568,205.279 696.81,205.56 C698.314,207.12 699.698,208.792 700.95,210.56 C701.658,211.538 702.484,212.425 703.41,213.2 C704.048,213.912 704.774,214.54 705.57,215.07 C706.02,215.3 705.9,215.66 705.47,215.88 C705.342,215.958 705.199,216.007 705.05,216.023 C704.901,216.038 704.751,216.02 704.61,215.97 C704.188,215.831 703.74,215.789 703.3,215.85 C702.088,215.958 700.873,215.689 699.82,215.08 C699.321,214.83 698.767,214.712 698.21,214.74 C697.33,214.74 697,213.9 696.48,213.33 C696.158,212.895 695.886,212.426 695.67,211.93 L695.71,211.92 Z" id="Path" fill="#D3D8E0" fill-rule="nonzero"></path>
                <path d="M695.5,209.251 C695.431,208.434 695.28,207.627 695.05,206.841 C694.95,206.531 695.47,205.981 695.83,206.001 C696.104,206.017 696.372,206.094 696.612,206.228 C696.853,206.361 697.06,206.546 697.22,206.771 C698.051,207.878 698.806,209.041 699.48,210.251 C699.865,210.934 700.314,211.581 700.82,212.181 C701.204,212.715 701.636,213.214 702.11,213.671 C702.39,213.911 702.25,214.031 701.92,214.001 C701.694,213.979 701.477,213.899 701.29,213.771 C701.008,213.581 700.702,213.43 700.38,213.321 C699.505,213.004 698.698,212.526 698,211.911 C697.675,211.637 697.307,211.421 696.91,211.271 C696.29,211.011 696.16,210.511 695.91,210.111 C695.748,209.836 695.617,209.544 695.52,209.241 L695.5,209.251 Z" id="Path" fill="#FFFFFF" fill-rule="nonzero"></path>
                <path d="M736.51,214.131 C735.83,214.261 735.15,214.421 734.51,214.501 C733.708,214.62 732.933,214.877 732.22,215.261 C731.084,215.788 729.898,216.2 728.68,216.491 C726.14,217.151 723.57,216.811 721.03,217.111 C718.34,217.411 715.66,217.811 712.97,217.991 C711.937,218.07 710.906,217.814 710.03,217.261 C709.4,216.871 709.35,216.501 709.89,215.941 C710.282,215.58 710.745,215.305 711.25,215.132 C711.754,214.96 712.289,214.895 712.82,214.941 C714.793,214.809 716.75,214.504 718.67,214.031 C719.999,213.896 721.337,213.869 722.67,213.951 C723.967,213.877 725.211,213.413 726.24,212.621 C727.24,211.941 728.36,211.441 729.37,210.751 C730.448,210.179 731.389,209.381 732.13,208.411 C732.63,207.631 733.54,207.721 734.26,207.411 C734.706,207.232 735.099,206.941 735.4,206.566 C735.701,206.191 735.901,205.745 735.98,205.271 C736.523,203.774 737.192,202.325 737.98,200.941 C738.598,199.952 739.114,198.904 739.52,197.811 C739.652,197.082 739.846,196.366 740.1,195.671 C740.37,194.836 740.931,194.127 741.68,193.671 C743.325,192.577 744.508,190.914 745,189.001 C745.22,188.321 744.9,187.731 745,187.101 C745.162,184.858 744.949,182.604 744.37,180.431 C743.92,178.621 743.86,176.721 743.17,174.971 C742.972,174.201 742.822,173.419 742.72,172.631 C742.17,170.311 741.72,167.991 741.27,165.631 C741.064,164.977 740.723,164.374 740.27,163.861 C739.735,162.879 739.084,161.966 738.33,161.141 C735.89,158.721 733.83,155.821 730.81,154.141 C728.27,152.721 725.89,150.961 723.1,150.141 C722.298,149.972 721.478,149.911 720.66,149.961 C718.59,149.961 716.52,149.781 714.45,149.811 C712.62,149.811 710.77,149.721 708.93,149.681 C707.234,149.613 705.579,150.213 704.32,151.351 C703.827,151.726 703.281,152.026 702.7,152.241 C701.187,153.043 699.793,154.053 698.56,155.241 C696.56,156.951 694.8,158.941 692.71,160.531 C692.12,160.971 691.96,161.881 691.71,162.621 C691.176,163.845 690.465,164.983 689.6,166.001 C688.43,167.671 687.41,169.331 687.45,171.571 C687.623,172.94 687.525,174.33 687.16,175.661 C686.93,176.271 687.43,176.961 687.26,177.561 C686.95,178.681 686.78,179.821 686.36,180.921 C686.044,181.534 685.857,182.204 685.809,182.892 C685.76,183.58 685.853,184.27 686.08,184.921 C686.723,186.364 687.154,187.894 687.36,189.461 C687.47,190.461 688.23,191.231 688.26,192.241 C688.26,194.001 688.99,195.661 688.73,197.471 C688.52,198.911 687.49,199.741 686.88,200.891 C686.67,201.271 686.3,201.131 686.06,200.821 C684.37,198.691 682.52,196.581 682.62,193.501 C682.603,192.014 682.676,190.528 682.84,189.051 C682.84,188.831 682.95,188.531 682.84,188.391 C681.92,187.031 682.78,185.781 683.04,184.511 C683.271,183.722 683.458,182.921 683.6,182.111 C683.72,180.981 684.23,180.001 684.41,178.891 C684.897,176.313 684.863,173.665 684.31,171.101 C683.703,168.347 683.915,165.476 684.92,162.841 C685.291,161.682 685.777,160.563 686.37,159.501 C686.94,158.561 687.85,158.061 688.45,157.211 C689.45,155.861 690.76,155.891 692.06,155.891 C693.71,155.891 694.87,154.891 695.91,153.681 C696.95,152.471 698.15,151.681 699.07,150.501 C699.978,149.481 700.59,148.233 700.84,146.891 C700.994,146.311 701.348,145.804 701.84,145.461 C703.386,143.756 705.179,142.293 707.16,141.121 C707.312,141.031 707.483,140.979 707.66,140.971 C709.544,140.984 711.39,141.498 713.01,142.461 C714.01,143.021 715.07,143.671 716.14,144.161 C716.668,144.368 717.131,144.713 717.48,145.161 C718.157,145.99 718.998,146.671 719.95,147.161 C720.045,147.23 720.155,147.277 720.27,147.3 C720.386,147.322 720.505,147.319 720.62,147.291 C721.631,147.092 722.679,147.211 723.62,147.631 C724.189,147.756 724.768,147.836 725.35,147.871 C726.86,148.263 728.307,148.866 729.65,149.661 C731.628,150.66 733.492,151.871 735.21,153.271 C736.06,153.981 737.21,154.271 737.98,155.031 C739.937,156.821 741.777,158.735 743.49,160.761 C744.75,162.351 745.37,164.411 746.2,166.291 C747.2,168.541 748.47,170.611 749.54,172.801 C750.364,174.548 750.856,176.433 750.99,178.361 C751.321,181.392 751.007,184.459 750.07,187.361 C749.65,188.571 749.17,189.811 748.82,191.021 C748.3,192.665 747.418,194.172 746.24,195.431 C745.553,196.06 745.023,196.841 744.69,197.711 C744.572,198.069 744.508,198.443 744.5,198.821 C744.5,200.471 744.5,202.111 744.5,203.761 C744.568,205.045 744.342,206.327 743.84,207.511 C743.337,208.695 742.571,209.748 741.6,210.591 C740.463,211.684 739.243,212.687 737.95,213.591 C737.54,213.888 737.062,214.078 736.56,214.141 L736.51,214.131 Z" id="Path" fill="#D3D8E0" fill-rule="nonzero"></path>
                <path d="M750,176.171 C749.871,174.303 749.386,172.476 748.57,170.791 C747.51,168.671 746.25,166.671 745.27,164.501 C744.44,162.671 743.82,160.681 742.58,159.141 C740.885,157.175 739.061,155.324 737.12,153.601 C736.33,152.831 735.23,152.601 734.39,151.881 C732.683,150.528 730.835,149.361 728.88,148.401 C727.549,147.629 726.114,147.05 724.62,146.681 C724.045,146.649 723.473,146.572 722.91,146.451 C721.968,146.034 720.92,145.919 719.91,146.121 C719.798,146.145 719.682,146.146 719.57,146.121 C719.458,146.097 719.352,146.049 719.26,145.981 C718.327,145.527 717.497,144.887 716.82,144.101 C716.479,143.654 716.023,143.308 715.5,143.101 C714.43,142.621 713.43,142.001 712.4,141.451 C710.789,140.518 708.962,140.022 707.1,140.011 C706.929,140.022 706.761,140.07 706.61,140.151 C704.658,141.286 702.885,142.705 701.35,144.361 C700.851,144.674 700.492,145.169 700.35,145.741 C700.107,147.048 699.496,148.258 698.59,149.231 C697.67,150.401 696.47,151.231 695.47,152.301 C695.018,152.903 694.446,153.405 693.79,153.775 C693.134,154.145 692.409,154.375 691.66,154.451 C690.36,154.451 689.03,154.451 688.06,155.741 C687.47,156.561 686.57,157.051 686,157.961 C685.411,158.989 684.928,160.075 684.56,161.201 C683.577,163.751 683.378,166.537 683.99,169.201 C684.541,171.673 684.579,174.233 684.1,176.721 C683.781,177.747 683.514,178.788 683.3,179.841 C683.3,180.001 683.3,180.161 683.22,180.321 L684.5,178.091 C684.741,177.634 685.026,177.202 685.35,176.801 C685.702,174.642 685.638,172.435 685.16,170.301 C684.572,167.778 684.757,165.137 685.69,162.721 C686.038,161.657 686.494,160.632 687.05,159.661 C687.59,158.801 688.44,158.341 689.05,157.551 C689.94,156.331 691.2,156.351 692.43,156.341 C693.138,156.289 693.826,156.082 694.446,155.737 C695.066,155.392 695.603,154.915 696.02,154.341 C697.02,153.281 698.11,152.541 699.02,151.431 C699.878,150.508 700.454,149.36 700.68,148.121 C700.815,147.591 701.143,147.131 701.6,146.831 C703.055,145.253 704.741,143.904 706.6,142.831 C706.747,142.759 706.907,142.715 707.07,142.701 C708.825,142.711 710.548,143.176 712.07,144.051 C713.07,144.581 713.99,145.171 715,145.621 C715.494,145.821 715.925,146.149 716.25,146.571 C716.894,147.308 717.675,147.912 718.55,148.351 C718.64,148.416 718.743,148.461 718.852,148.481 C718.96,148.502 719.073,148.499 719.18,148.471 C720.092,148.291 721.037,148.392 721.89,148.761 C722.079,148.782 722.267,148.819 722.45,148.871 L722.58,148.871 C722.915,148.885 723.249,148.918 723.58,148.971 C724.982,149.327 726.328,149.876 727.58,150.601 C729.421,151.515 731.161,152.621 732.77,153.901 C733.57,154.561 734.59,154.801 735.36,155.521 C737.191,157.155 738.911,158.909 740.51,160.771 C741.575,162.34 742.432,164.041 743.06,165.831 C743.99,167.891 745.18,169.781 746.19,171.781 C746.955,173.381 747.413,175.111 747.54,176.881 C747.6,177.581 747.63,178.291 747.64,178.991 C747.69,179.141 747.75,179.281 747.81,179.421 C747.99,179.751 748.19,180.111 748.27,180.281 L749.61,182.961 C750.091,180.731 750.223,178.441 750,176.171 Z" id="Path" fill="#FFFFFF" fill-rule="nonzero"></path>
                <path d="M730.22,160.31 C732.042,161.25 733.582,162.658 734.68,164.39 C736.226,165.089 737.518,166.249 738.38,167.71 C736.58,162.78 732.96,159.46 729.03,156.8 C726.993,155.322 724.831,154.024 722.57,152.92 C720.355,152.011 717.925,151.757 715.57,152.19 C713.029,152.427 710.549,153.103 708.24,154.19 C705.948,155.381 703.775,156.787 701.75,158.39 C700.258,159.713 698.935,161.214 697.81,162.86 L697.81,162.94 C697.52,163.33 697.25,163.71 696.96,164.09 C695.576,165.923 694.361,167.878 693.33,169.93 C694.045,169.098 694.918,168.418 695.9,167.93 C696.4,167.12 696.9,166.33 697.49,165.56 L698.66,163.95 C699.53,163.407 700.246,162.649 700.74,161.75 C702.476,160.197 704.37,158.83 706.39,157.67 C710.112,155.936 714.174,155.054 718.28,155.09 C720.579,155.072 722.838,155.688 724.81,156.87 C726.55,158.06 728.38,159.19 730.22,160.31 Z M721.69,154.16 C721.597,154.091 721.5,154.027 721.4,153.97 L721.74,154.1 L722.21,154.3 C722.041,154.239 721.867,154.193 721.69,154.16 Z" id="Shape" fill="#FFFFFF" fill-rule="nonzero"></path>
                <path d="M728.9,198.691 C730.639,197.734 732.087,196.324 733.09,194.611 C734.565,193.892 735.784,192.736 736.58,191.301 C734.89,196.231 731.48,199.551 727.79,202.201 C725.883,203.673 723.849,204.972 721.71,206.081 C719.638,206.998 717.333,207.253 715.11,206.811 C712.708,206.564 710.371,205.886 708.21,204.811 C706.048,203.604 704.009,202.191 702.12,200.591 C700.704,199.259 699.458,197.758 698.41,196.121 L698.41,196.041 L697.62,194.901 C696.314,193.054 695.173,191.097 694.21,189.051 C694.873,189.874 695.696,190.555 696.63,191.051 C697.1,191.861 697.63,192.641 698.13,193.411 C698.49,193.941 698.86,194.491 699.23,195.021 C700.072,195.577 700.76,196.338 701.23,197.231 C702.856,198.773 704.639,200.14 706.55,201.311 C710.022,203.034 713.854,203.908 717.73,203.861 C719.903,203.88 722.035,203.261 723.86,202.081 C725.46,201.001 727.18,199.811 728.9,198.691 Z M720.9,204.851 L720.63,205.031 L720.95,204.911 L721.39,204.711 L720.9,204.851 Z" id="Shape" fill="#FFFFFF" fill-rule="nonzero"></path>
                <path d="M738.18,208.24 C738.418,207.202 738.777,206.195 739.25,205.24 C739.44,204.87 738.78,204.06 738.25,204.01 C737.861,203.971 737.468,204.013 737.096,204.133 C736.724,204.254 736.382,204.45 736.09,204.71 C734.711,205.951 733.421,207.288 732.23,208.71 C731.533,209.521 730.752,210.255 729.9,210.9 C729.247,211.514 728.537,212.063 727.78,212.54 C727.32,212.79 727.51,212.97 728.01,213 C728.332,213.021 728.655,212.962 728.95,212.83 C729.4,212.634 729.874,212.496 730.36,212.42 C731.66,212.202 732.909,211.751 734.05,211.09 C734.584,210.808 735.157,210.606 735.75,210.49 C736.75,210.29 736.96,209.67 737.45,209.22 C737.729,208.92 737.968,208.584 738.16,208.22 L738.18,208.24 Z" id="Path" fill="#FFFFFF" fill-rule="nonzero"></path>
                <path d="M725.13,169.64 L722,168 L707.28,169.65 L706.82,170.18 C706.82,171.11 706.89,172.05 706.92,172.98 L707.2,173.29 L713.77,173.55 C713.89,179.19 714.44,183.23 714.49,186.02 C714.86,187.97 714.49,189.21 713.49,189.72 C712.484,190.303 711.384,190.705 710.24,190.91 C710.24,192.23 717.11,192.09 715.11,192.28 L710.44,192.55 L709.99,194.94 L712.3,197 L719.45,196.72 C721.85,196.58 723.84,195.84 724.86,194.59 C725.47,193.901 725.786,193 725.74,192.08 L725.13,169.64 Z" id="Path" fill="#000000" fill-rule="nonzero"></path>
                <path d="M722.67,168 L706.78,168.06 C706.84,169.27 706.89,170.49 706.94,171.71 L715.48,171.9 L715.62,187.9 C715.62,189.2 714.3,190.1 712.3,190.3 L707.61,190.6 L709.61,194.97 L716.75,194.66 C719.15,194.51 721.15,193.75 722.17,192.53 C722.779,191.848 723.095,190.953 723.05,190.04 L722.67,168 Z" id="Path" fill="#D3D8E0" fill-rule="nonzero"></path>
                <path d="M723.62,167 L707.68,167.13 C707.68,167.42 707.68,167.71 707.68,168.01 L722.07,168.34 L722.07,190.61 C722.07,192.39 720.24,193.68 717.5,193.93 L711.07,194.37 L711.38,195 L717.38,194.73 C719.85,194.56 721.9,193.78 722.96,192.51 C723.591,191.801 723.927,190.878 723.9,189.93 L723.62,167 Z" id="Path" fill="#FFFFFF" fill-rule="nonzero"></path>
            </g>
        </g>
    </g>
</svg>